<mxfile host="app.diagrams.net" agent="Mozilla/5.0 (Windows NT 10.0; Win64; x64; rv:132.0) Gecko/20100101 Firefox/132.0" version="24.8.6">
  <diagram name="Page-1" id="e7e014a7-5840-1c2e-5031-d8a46d1fe8dd">
    <mxGraphModel dx="2228" dy="633" grid="1" gridSize="10" guides="1" tooltips="1" connect="1" arrows="1" fold="1" page="1" pageScale="1" pageWidth="1169" pageHeight="826" background="none" math="0" shadow="0">
      <root>
        <mxCell id="0" />
        <mxCell id="1" parent="0" />
        <mxCell id="2" value="" style="swimlane;whiteSpace=wrap" parent="1" vertex="1">
          <mxGeometry x="-140" y="100" width="1190" height="690" as="geometry">
            <mxRectangle x="20" y="120" width="50" height="40" as="alternateBounds" />
          </mxGeometry>
        </mxCell>
        <mxCell id="7" value="Login Form" style="rounded=1;" parent="2" vertex="1">
          <mxGeometry x="390" y="110" width="110" height="30" as="geometry" />
        </mxCell>
        <mxCell id="2FrgjrrF-dDn40EmP_Fg-46" value="" style="edgeStyle=orthogonalEdgeStyle;rounded=0;orthogonalLoop=1;jettySize=auto;html=1;entryX=0.5;entryY=0;entryDx=0;entryDy=0;" parent="2" source="2FrgjrrF-dDn40EmP_Fg-42" target="2FrgjrrF-dDn40EmP_Fg-44" edge="1">
          <mxGeometry relative="1" as="geometry">
            <mxPoint x="115" y="442" as="targetPoint" />
            <Array as="points">
              <mxPoint x="46" y="228" />
              <mxPoint x="17" y="228" />
            </Array>
          </mxGeometry>
        </mxCell>
        <mxCell id="2FrgjrrF-dDn40EmP_Fg-47" value="Cancel" style="edgeLabel;html=1;align=center;verticalAlign=middle;resizable=0;points=[];" parent="2FrgjrrF-dDn40EmP_Fg-46" vertex="1" connectable="0">
          <mxGeometry x="-0.0341" y="1" relative="1" as="geometry">
            <mxPoint as="offset" />
          </mxGeometry>
        </mxCell>
        <mxCell id="6vOyJ-sNBMJ700w3KjmY-45" style="edgeStyle=orthogonalEdgeStyle;rounded=0;orthogonalLoop=1;jettySize=auto;html=1;entryX=0.5;entryY=0;entryDx=0;entryDy=0;exitX=0.858;exitY=0.586;exitDx=0;exitDy=0;exitPerimeter=0;" edge="1" parent="2" source="2FrgjrrF-dDn40EmP_Fg-42" target="2FrgjrrF-dDn40EmP_Fg-80">
          <mxGeometry relative="1" as="geometry" />
        </mxCell>
        <mxCell id="6vOyJ-sNBMJ700w3KjmY-48" value="Create Account" style="edgeLabel;html=1;align=center;verticalAlign=middle;resizable=0;points=[];" vertex="1" connectable="0" parent="6vOyJ-sNBMJ700w3KjmY-45">
          <mxGeometry x="-0.0326" relative="1" as="geometry">
            <mxPoint as="offset" />
          </mxGeometry>
        </mxCell>
        <mxCell id="6vOyJ-sNBMJ700w3KjmY-46" style="edgeStyle=orthogonalEdgeStyle;rounded=0;orthogonalLoop=1;jettySize=auto;html=1;entryX=0.5;entryY=0;entryDx=0;entryDy=0;exitX=1.056;exitY=0.788;exitDx=0;exitDy=0;exitPerimeter=0;" edge="1" parent="2" source="2FrgjrrF-dDn40EmP_Fg-42" target="2FrgjrrF-dDn40EmP_Fg-48">
          <mxGeometry relative="1" as="geometry" />
        </mxCell>
        <mxCell id="6vOyJ-sNBMJ700w3KjmY-47" value="Login" style="edgeLabel;html=1;align=center;verticalAlign=middle;resizable=0;points=[];" vertex="1" connectable="0" parent="6vOyJ-sNBMJ700w3KjmY-46">
          <mxGeometry x="-0.1571" y="-2" relative="1" as="geometry">
            <mxPoint as="offset" />
          </mxGeometry>
        </mxCell>
        <mxCell id="6vOyJ-sNBMJ700w3KjmY-61" style="edgeStyle=orthogonalEdgeStyle;rounded=0;orthogonalLoop=1;jettySize=auto;html=1;entryX=0.5;entryY=0;entryDx=0;entryDy=0;exitX=0.463;exitY=0.269;exitDx=0;exitDy=0;exitPerimeter=0;" edge="1" parent="2" source="2FrgjrrF-dDn40EmP_Fg-42" target="2FrgjrrF-dDn40EmP_Fg-113">
          <mxGeometry relative="1" as="geometry" />
        </mxCell>
        <mxCell id="6vOyJ-sNBMJ700w3KjmY-62" value="Forgot Password" style="edgeLabel;html=1;align=center;verticalAlign=middle;resizable=0;points=[];" vertex="1" connectable="0" parent="6vOyJ-sNBMJ700w3KjmY-61">
          <mxGeometry x="-0.0714" y="3" relative="1" as="geometry">
            <mxPoint as="offset" />
          </mxGeometry>
        </mxCell>
        <mxCell id="2FrgjrrF-dDn40EmP_Fg-42" value="" style="html=1;points=[];perimeter=orthogonalPerimeter;fillColor=strokeColor;rotation=90;" parent="2" vertex="1">
          <mxGeometry x="414.62" y="-202.56" width="6.75" height="755.62" as="geometry" />
        </mxCell>
        <mxCell id="2FrgjrrF-dDn40EmP_Fg-44" value="" style="shape=sumEllipse;perimeter=ellipsePerimeter;html=1;backgroundOutline=1;" parent="2" vertex="1">
          <mxGeometry x="30" y="272.5" width="30" height="30" as="geometry" />
        </mxCell>
        <mxCell id="2FrgjrrF-dDn40EmP_Fg-53" style="edgeStyle=orthogonalEdgeStyle;rounded=0;orthogonalLoop=1;jettySize=auto;html=1;exitX=0.75;exitY=1;exitDx=0;exitDy=0;entryX=0.5;entryY=0;entryDx=0;entryDy=0;" parent="2" source="2FrgjrrF-dDn40EmP_Fg-48" target="2FrgjrrF-dDn40EmP_Fg-52" edge="1">
          <mxGeometry relative="1" as="geometry" />
        </mxCell>
        <mxCell id="2FrgjrrF-dDn40EmP_Fg-48" value="hash password" style="rounded=1;whiteSpace=wrap;html=1;" parent="2" vertex="1">
          <mxGeometry x="140.87" y="240" width="114.5" height="28" as="geometry" />
        </mxCell>
        <mxCell id="2FrgjrrF-dDn40EmP_Fg-55" style="edgeStyle=orthogonalEdgeStyle;rounded=0;orthogonalLoop=1;jettySize=auto;html=1;exitX=0.5;exitY=1;exitDx=0;exitDy=0;entryX=0.25;entryY=0;entryDx=0;entryDy=0;" parent="2" source="2FrgjrrF-dDn40EmP_Fg-52" target="2FrgjrrF-dDn40EmP_Fg-54" edge="1">
          <mxGeometry relative="1" as="geometry" />
        </mxCell>
        <mxCell id="2FrgjrrF-dDn40EmP_Fg-52" value="sanitise username" style="rounded=1;whiteSpace=wrap;html=1;" parent="2" vertex="1">
          <mxGeometry x="160" y="293" width="124.12" height="30" as="geometry" />
        </mxCell>
        <mxCell id="2FrgjrrF-dDn40EmP_Fg-61" style="edgeStyle=orthogonalEdgeStyle;rounded=0;orthogonalLoop=1;jettySize=auto;html=1;exitX=0.5;exitY=1;exitDx=0;exitDy=0;entryX=0.5;entryY=0;entryDx=0;entryDy=0;" parent="2" source="2FrgjrrF-dDn40EmP_Fg-54" target="2FrgjrrF-dDn40EmP_Fg-60" edge="1">
          <mxGeometry relative="1" as="geometry" />
        </mxCell>
        <mxCell id="6vOyJ-sNBMJ700w3KjmY-31" style="edgeStyle=orthogonalEdgeStyle;rounded=0;orthogonalLoop=1;jettySize=auto;html=1;exitX=0;exitY=0.5;exitDx=0;exitDy=0;entryX=1;entryY=0.5;entryDx=0;entryDy=0;" edge="1" parent="2" source="2FrgjrrF-dDn40EmP_Fg-54" target="2FrgjrrF-dDn40EmP_Fg-56">
          <mxGeometry relative="1" as="geometry" />
        </mxCell>
        <mxCell id="2FrgjrrF-dDn40EmP_Fg-54" value="check credentials" style="rounded=1;whiteSpace=wrap;html=1;" parent="2" vertex="1">
          <mxGeometry x="190.87" y="345" width="114.5" height="30" as="geometry" />
        </mxCell>
        <mxCell id="2FrgjrrF-dDn40EmP_Fg-56" value="&lt;div style=&quot;font-size: 10px;&quot;&gt;&lt;font style=&quot;font-size: 10px;&quot;&gt;&amp;lt;&amp;lt;datastore&amp;gt;&amp;gt;&lt;/font&gt;&lt;/div&gt;&lt;div style=&quot;font-size: 10px;&quot;&gt;&lt;font style=&quot;font-size: 10px;&quot;&gt;Users&lt;br&gt;&lt;/font&gt;&lt;/div&gt;" style="rounded=0;whiteSpace=wrap;html=1;" parent="2" vertex="1">
          <mxGeometry x="87.2" y="347.5" width="90" height="25" as="geometry" />
        </mxCell>
        <mxCell id="2FrgjrrF-dDn40EmP_Fg-72" style="edgeStyle=orthogonalEdgeStyle;rounded=0;orthogonalLoop=1;jettySize=auto;html=1;exitX=1;exitY=0.5;exitDx=0;exitDy=0;entryX=0.5;entryY=0;entryDx=0;entryDy=0;" parent="2" source="2FrgjrrF-dDn40EmP_Fg-60" target="2FrgjrrF-dDn40EmP_Fg-71" edge="1">
          <mxGeometry relative="1" as="geometry" />
        </mxCell>
        <mxCell id="2FrgjrrF-dDn40EmP_Fg-75" value="No" style="edgeLabel;html=1;align=center;verticalAlign=middle;resizable=0;points=[];" parent="2FrgjrrF-dDn40EmP_Fg-72" vertex="1" connectable="0">
          <mxGeometry x="-0.0482" y="-2" relative="1" as="geometry">
            <mxPoint x="-1" as="offset" />
          </mxGeometry>
        </mxCell>
        <mxCell id="2FrgjrrF-dDn40EmP_Fg-60" value="" style="rhombus;whiteSpace=wrap;html=1;" parent="2" vertex="1">
          <mxGeometry x="207.06" y="400" width="20" height="20" as="geometry" />
        </mxCell>
        <mxCell id="2FrgjrrF-dDn40EmP_Fg-66" style="edgeStyle=orthogonalEdgeStyle;rounded=0;orthogonalLoop=1;jettySize=auto;html=1;exitX=0.343;exitY=0.967;exitDx=0;exitDy=0;exitPerimeter=0;entryX=0.5;entryY=0;entryDx=0;entryDy=0;" parent="2" target="2FrgjrrF-dDn40EmP_Fg-65" edge="1">
          <mxGeometry relative="1" as="geometry">
            <mxPoint x="144.57000000000028" y="469.01" as="sourcePoint" />
          </mxGeometry>
        </mxCell>
        <mxCell id="2FrgjrrF-dDn40EmP_Fg-65" value="" style="ellipse;html=1;shape=endState;fillColor=strokeColor;" parent="2" vertex="1">
          <mxGeometry x="130" y="490" width="30" height="30" as="geometry" />
        </mxCell>
        <mxCell id="2FrgjrrF-dDn40EmP_Fg-79" style="edgeStyle=orthogonalEdgeStyle;rounded=0;orthogonalLoop=1;jettySize=auto;html=1;exitX=0;exitY=0.5;exitDx=0;exitDy=0;entryX=1;entryY=0.5;entryDx=0;entryDy=0;" parent="2" source="2FrgjrrF-dDn40EmP_Fg-68" target="7" edge="1">
          <mxGeometry relative="1" as="geometry" />
        </mxCell>
        <mxCell id="2FrgjrrF-dDn40EmP_Fg-68" value="A" style="ellipse;" parent="2" vertex="1">
          <mxGeometry x="523.25" y="110" width="30" height="30" as="geometry" />
        </mxCell>
        <mxCell id="2FrgjrrF-dDn40EmP_Fg-70" value="A" style="ellipse;" parent="2" vertex="1">
          <mxGeometry x="460" y="630" width="30" height="30" as="geometry" />
        </mxCell>
        <mxCell id="6vOyJ-sNBMJ700w3KjmY-33" style="edgeStyle=orthogonalEdgeStyle;rounded=0;orthogonalLoop=1;jettySize=auto;html=1;exitX=0.5;exitY=1;exitDx=0;exitDy=0;entryX=0;entryY=0.5;entryDx=0;entryDy=0;" edge="1" parent="2" source="2FrgjrrF-dDn40EmP_Fg-71" target="2FrgjrrF-dDn40EmP_Fg-70">
          <mxGeometry relative="1" as="geometry" />
        </mxCell>
        <mxCell id="2FrgjrrF-dDn40EmP_Fg-71" value="Login Error" style="rounded=1;whiteSpace=wrap;html=1;" parent="2" vertex="1">
          <mxGeometry x="190.87" y="480" width="120" height="30" as="geometry" />
        </mxCell>
        <mxCell id="6vOyJ-sNBMJ700w3KjmY-10" style="edgeStyle=orthogonalEdgeStyle;rounded=0;orthogonalLoop=1;jettySize=auto;html=1;exitX=0.5;exitY=1;exitDx=0;exitDy=0;entryX=0.5;entryY=0;entryDx=0;entryDy=0;" edge="1" parent="2" source="2FrgjrrF-dDn40EmP_Fg-76" target="6vOyJ-sNBMJ700w3KjmY-7">
          <mxGeometry relative="1" as="geometry" />
        </mxCell>
        <mxCell id="2FrgjrrF-dDn40EmP_Fg-76" value="sanitise username and challenge question answer" style="rounded=1;whiteSpace=wrap;html=1;" parent="2" vertex="1">
          <mxGeometry x="320" y="302.5" width="120" height="45" as="geometry" />
        </mxCell>
        <mxCell id="2FrgjrrF-dDn40EmP_Fg-83" style="edgeStyle=orthogonalEdgeStyle;rounded=0;orthogonalLoop=1;jettySize=auto;html=1;exitX=0.5;exitY=1;exitDx=0;exitDy=0;entryX=0.25;entryY=0;entryDx=0;entryDy=0;" parent="2" source="2FrgjrrF-dDn40EmP_Fg-80" target="2FrgjrrF-dDn40EmP_Fg-76" edge="1">
          <mxGeometry relative="1" as="geometry" />
        </mxCell>
        <mxCell id="2FrgjrrF-dDn40EmP_Fg-84" value="Create" style="edgeLabel;html=1;align=center;verticalAlign=middle;resizable=0;points=[];" parent="2FrgjrrF-dDn40EmP_Fg-83" vertex="1" connectable="0">
          <mxGeometry x="-0.1915" relative="1" as="geometry">
            <mxPoint as="offset" />
          </mxGeometry>
        </mxCell>
        <mxCell id="2FrgjrrF-dDn40EmP_Fg-80" value="New Account Form" style="rounded=1;whiteSpace=wrap;html=1;" parent="2" vertex="1">
          <mxGeometry x="290" y="238" width="120" height="30" as="geometry" />
        </mxCell>
        <mxCell id="2FrgjrrF-dDn40EmP_Fg-90" style="edgeStyle=orthogonalEdgeStyle;rounded=0;orthogonalLoop=1;jettySize=auto;html=1;exitX=0.5;exitY=1;exitDx=0;exitDy=0;entryX=0.5;entryY=0;entryDx=0;entryDy=0;" parent="2" source="2FrgjrrF-dDn40EmP_Fg-85" target="2FrgjrrF-dDn40EmP_Fg-89" edge="1">
          <mxGeometry relative="1" as="geometry" />
        </mxCell>
        <mxCell id="2FrgjrrF-dDn40EmP_Fg-107" style="edgeStyle=orthogonalEdgeStyle;rounded=0;orthogonalLoop=1;jettySize=auto;html=1;exitX=1;exitY=0.5;exitDx=0;exitDy=0;entryX=0;entryY=0.5;entryDx=0;entryDy=0;" parent="2" source="2FrgjrrF-dDn40EmP_Fg-85" target="2FrgjrrF-dDn40EmP_Fg-102" edge="1">
          <mxGeometry relative="1" as="geometry" />
        </mxCell>
        <mxCell id="2FrgjrrF-dDn40EmP_Fg-85" value="&lt;div&gt;validate username&lt;/div&gt;&lt;div&gt;unique,&lt;br&gt;&lt;/div&gt;&lt;div&gt;(1 ≤ chars ≤ 15)&lt;br&gt;&lt;/div&gt;" style="rounded=1;whiteSpace=wrap;html=1;" parent="2" vertex="1">
          <mxGeometry x="421.36999999999995" y="427.5" width="110" height="50" as="geometry" />
        </mxCell>
        <mxCell id="2FrgjrrF-dDn40EmP_Fg-87" value="&lt;div style=&quot;font-size: 10px;&quot;&gt;&lt;font style=&quot;font-size: 10px;&quot;&gt;&amp;lt;&amp;lt;datastore&amp;gt;&amp;gt;&lt;/font&gt;&lt;/div&gt;&lt;div style=&quot;font-size: 10px;&quot;&gt;&lt;font style=&quot;font-size: 10px;&quot;&gt;Users&lt;br&gt;&lt;/font&gt;&lt;/div&gt;" style="rounded=0;whiteSpace=wrap;html=1;" parent="2" vertex="1">
          <mxGeometry x="696.17" y="550" width="100" height="25" as="geometry" />
        </mxCell>
        <mxCell id="2FrgjrrF-dDn40EmP_Fg-100" style="edgeStyle=orthogonalEdgeStyle;rounded=0;orthogonalLoop=1;jettySize=auto;html=1;exitX=1;exitY=0.5;exitDx=0;exitDy=0;entryX=0;entryY=0.5;entryDx=0;entryDy=0;" parent="2" source="2FrgjrrF-dDn40EmP_Fg-89" target="2FrgjrrF-dDn40EmP_Fg-99" edge="1">
          <mxGeometry relative="1" as="geometry" />
        </mxCell>
        <mxCell id="6vOyJ-sNBMJ700w3KjmY-13" value="Yes" style="edgeLabel;html=1;align=center;verticalAlign=middle;resizable=0;points=[];" vertex="1" connectable="0" parent="2FrgjrrF-dDn40EmP_Fg-100">
          <mxGeometry x="-0.225" y="-1" relative="1" as="geometry">
            <mxPoint as="offset" />
          </mxGeometry>
        </mxCell>
        <mxCell id="6vOyJ-sNBMJ700w3KjmY-50" style="edgeStyle=orthogonalEdgeStyle;rounded=0;orthogonalLoop=1;jettySize=auto;html=1;exitX=0.5;exitY=1;exitDx=0;exitDy=0;entryX=0.75;entryY=0;entryDx=0;entryDy=0;" edge="1" parent="2" source="2FrgjrrF-dDn40EmP_Fg-89" target="2FrgjrrF-dDn40EmP_Fg-91">
          <mxGeometry relative="1" as="geometry" />
        </mxCell>
        <mxCell id="6vOyJ-sNBMJ700w3KjmY-51" value="No" style="edgeLabel;html=1;align=center;verticalAlign=middle;resizable=0;points=[];" vertex="1" connectable="0" parent="6vOyJ-sNBMJ700w3KjmY-50">
          <mxGeometry x="-0.5732" relative="1" as="geometry">
            <mxPoint y="1" as="offset" />
          </mxGeometry>
        </mxCell>
        <mxCell id="2FrgjrrF-dDn40EmP_Fg-89" value="" style="rhombus;whiteSpace=wrap;html=1;" parent="2" vertex="1">
          <mxGeometry x="484.99999999999994" y="493.81" width="20" height="20" as="geometry" />
        </mxCell>
        <mxCell id="6vOyJ-sNBMJ700w3KjmY-54" style="edgeStyle=orthogonalEdgeStyle;rounded=0;orthogonalLoop=1;jettySize=auto;html=1;exitX=0.25;exitY=1;exitDx=0;exitDy=0;entryX=0;entryY=0.5;entryDx=0;entryDy=0;" edge="1" parent="2" source="2FrgjrrF-dDn40EmP_Fg-91" target="2FrgjrrF-dDn40EmP_Fg-70">
          <mxGeometry relative="1" as="geometry" />
        </mxCell>
        <mxCell id="6vOyJ-sNBMJ700w3KjmY-74" style="edgeStyle=orthogonalEdgeStyle;rounded=0;orthogonalLoop=1;jettySize=auto;html=1;exitX=0;exitY=0.5;exitDx=0;exitDy=0;entryX=1;entryY=0.5;entryDx=0;entryDy=0;" edge="1" parent="2" source="2FrgjrrF-dDn40EmP_Fg-91" target="6vOyJ-sNBMJ700w3KjmY-72">
          <mxGeometry relative="1" as="geometry" />
        </mxCell>
        <mxCell id="2FrgjrrF-dDn40EmP_Fg-91" value="InvalidUsername Error" style="rounded=1;whiteSpace=wrap;html=1;" parent="2" vertex="1">
          <mxGeometry x="389.99999999999994" y="547.5" width="140" height="30" as="geometry" />
        </mxCell>
        <mxCell id="2FrgjrrF-dDn40EmP_Fg-98" style="edgeStyle=orthogonalEdgeStyle;rounded=0;orthogonalLoop=1;jettySize=auto;html=1;exitX=0.5;exitY=1;exitDx=0;exitDy=0;entryX=0.5;entryY=0;entryDx=0;entryDy=0;" parent="2" source="2FrgjrrF-dDn40EmP_Fg-96" target="7" edge="1">
          <mxGeometry relative="1" as="geometry" />
        </mxCell>
        <mxCell id="2FrgjrrF-dDn40EmP_Fg-96" value="" style="ellipse;html=1;shape=endState;fillColor=strokeColor;" parent="2" vertex="1">
          <mxGeometry x="430" y="50" width="30" height="30" as="geometry" />
        </mxCell>
        <mxCell id="2FrgjrrF-dDn40EmP_Fg-105" style="edgeStyle=orthogonalEdgeStyle;rounded=0;orthogonalLoop=1;jettySize=auto;html=1;exitX=0.5;exitY=1;exitDx=0;exitDy=0;entryX=0.25;entryY=0;entryDx=0;entryDy=0;" parent="2" source="2FrgjrrF-dDn40EmP_Fg-99" target="2FrgjrrF-dDn40EmP_Fg-101" edge="1">
          <mxGeometry relative="1" as="geometry" />
        </mxCell>
        <mxCell id="2FrgjrrF-dDn40EmP_Fg-99" value="hash password" style="rounded=1;whiteSpace=wrap;html=1;" parent="2" vertex="1">
          <mxGeometry x="553.25" y="490" width="110" height="30" as="geometry" />
        </mxCell>
        <mxCell id="2FrgjrrF-dDn40EmP_Fg-103" style="edgeStyle=orthogonalEdgeStyle;rounded=0;orthogonalLoop=1;jettySize=auto;html=1;exitX=1;exitY=0.5;exitDx=0;exitDy=0;entryX=0;entryY=0.5;entryDx=0;entryDy=0;" parent="2" source="2FrgjrrF-dDn40EmP_Fg-101" target="2FrgjrrF-dDn40EmP_Fg-87" edge="1">
          <mxGeometry relative="1" as="geometry" />
        </mxCell>
        <mxCell id="2FrgjrrF-dDn40EmP_Fg-110" style="edgeStyle=orthogonalEdgeStyle;rounded=0;orthogonalLoop=1;jettySize=auto;html=1;exitX=0.5;exitY=1;exitDx=0;exitDy=0;entryX=0.5;entryY=0;entryDx=0;entryDy=0;" parent="2" source="2FrgjrrF-dDn40EmP_Fg-101" target="2FrgjrrF-dDn40EmP_Fg-109" edge="1">
          <mxGeometry relative="1" as="geometry" />
        </mxCell>
        <mxCell id="2FrgjrrF-dDn40EmP_Fg-101" value="&lt;div&gt;store username, hashed password&lt;/div&gt;&lt;div&gt;and challenge answer&lt;br&gt;&lt;/div&gt;" style="rounded=1;whiteSpace=wrap;html=1;" parent="2" vertex="1">
          <mxGeometry x="553.67" y="537.5" width="125" height="50" as="geometry" />
        </mxCell>
        <mxCell id="2FrgjrrF-dDn40EmP_Fg-102" value="&lt;div style=&quot;font-size: 10px;&quot;&gt;&lt;font style=&quot;font-size: 10px;&quot;&gt;&amp;lt;&amp;lt;datastore&amp;gt;&amp;gt;&lt;/font&gt;&lt;/div&gt;&lt;div style=&quot;font-size: 10px;&quot;&gt;&lt;font style=&quot;font-size: 10px;&quot;&gt;Users&lt;br&gt;&lt;/font&gt;&lt;/div&gt;" style="rounded=0;whiteSpace=wrap;html=1;" parent="2" vertex="1">
          <mxGeometry x="545" y="440" width="100" height="25" as="geometry" />
        </mxCell>
        <mxCell id="6vOyJ-sNBMJ700w3KjmY-59" style="edgeStyle=orthogonalEdgeStyle;rounded=0;orthogonalLoop=1;jettySize=auto;html=1;exitX=0;exitY=0.5;exitDx=0;exitDy=0;entryX=0.5;entryY=0;entryDx=0;entryDy=0;" edge="1" parent="2" source="2FrgjrrF-dDn40EmP_Fg-109" target="2FrgjrrF-dDn40EmP_Fg-70">
          <mxGeometry relative="1" as="geometry">
            <Array as="points">
              <mxPoint x="570" y="610" />
              <mxPoint x="475" y="610" />
            </Array>
          </mxGeometry>
        </mxCell>
        <mxCell id="2FrgjrrF-dDn40EmP_Fg-109" value="account created" style="rounded=1;whiteSpace=wrap;html=1;" parent="2" vertex="1">
          <mxGeometry x="570" y="600" width="120" height="30" as="geometry" />
        </mxCell>
        <mxCell id="6vOyJ-sNBMJ700w3KjmY-65" style="edgeStyle=orthogonalEdgeStyle;rounded=0;orthogonalLoop=1;jettySize=auto;html=1;exitX=0.5;exitY=1;exitDx=0;exitDy=0;entryX=0.5;entryY=0;entryDx=0;entryDy=0;" edge="1" parent="2" source="2FrgjrrF-dDn40EmP_Fg-113" target="6vOyJ-sNBMJ700w3KjmY-64">
          <mxGeometry relative="1" as="geometry" />
        </mxCell>
        <mxCell id="2FrgjrrF-dDn40EmP_Fg-113" value="Reset Password Form" style="rounded=1;whiteSpace=wrap;html=1;" parent="2" vertex="1">
          <mxGeometry x="527.5" y="238" width="135" height="30" as="geometry" />
        </mxCell>
        <mxCell id="6vOyJ-sNBMJ700w3KjmY-49" style="edgeStyle=orthogonalEdgeStyle;rounded=0;orthogonalLoop=1;jettySize=auto;html=1;exitX=0.25;exitY=1;exitDx=0;exitDy=0;entryX=0.5;entryY=0;entryDx=0;entryDy=0;" edge="1" parent="2" source="6vOyJ-sNBMJ700w3KjmY-7" target="6vOyJ-sNBMJ700w3KjmY-14">
          <mxGeometry relative="1" as="geometry" />
        </mxCell>
        <mxCell id="6vOyJ-sNBMJ700w3KjmY-7" value="&lt;div&gt;validate challenge question answer&lt;/div&gt;&lt;div&gt;(1 ≤ chars ≤ 30)&lt;/div&gt;" style="rounded=1;whiteSpace=wrap;html=1;" vertex="1" parent="2">
          <mxGeometry x="340" y="370" width="120" height="50" as="geometry" />
        </mxCell>
        <mxCell id="6vOyJ-sNBMJ700w3KjmY-43" style="edgeStyle=orthogonalEdgeStyle;rounded=0;orthogonalLoop=1;jettySize=auto;html=1;exitX=1;exitY=0.5;exitDx=0;exitDy=0;entryX=0;entryY=0.25;entryDx=0;entryDy=0;" edge="1" parent="2" source="6vOyJ-sNBMJ700w3KjmY-14" target="2FrgjrrF-dDn40EmP_Fg-85">
          <mxGeometry relative="1" as="geometry" />
        </mxCell>
        <mxCell id="6vOyJ-sNBMJ700w3KjmY-56" value="Yes" style="edgeLabel;html=1;align=center;verticalAlign=middle;resizable=0;points=[];" vertex="1" connectable="0" parent="6vOyJ-sNBMJ700w3KjmY-43">
          <mxGeometry x="-0.0073" y="-3" relative="1" as="geometry">
            <mxPoint x="1" as="offset" />
          </mxGeometry>
        </mxCell>
        <mxCell id="6vOyJ-sNBMJ700w3KjmY-44" style="edgeStyle=orthogonalEdgeStyle;rounded=0;orthogonalLoop=1;jettySize=auto;html=1;exitX=0.5;exitY=1;exitDx=0;exitDy=0;entryX=0.5;entryY=0;entryDx=0;entryDy=0;" edge="1" parent="2" source="6vOyJ-sNBMJ700w3KjmY-14" target="6vOyJ-sNBMJ700w3KjmY-19">
          <mxGeometry relative="1" as="geometry" />
        </mxCell>
        <mxCell id="6vOyJ-sNBMJ700w3KjmY-57" value="No" style="edgeLabel;html=1;align=center;verticalAlign=middle;resizable=0;points=[];" vertex="1" connectable="0" parent="6vOyJ-sNBMJ700w3KjmY-44">
          <mxGeometry x="-0.4424" y="4" relative="1" as="geometry">
            <mxPoint as="offset" />
          </mxGeometry>
        </mxCell>
        <mxCell id="6vOyJ-sNBMJ700w3KjmY-14" value="" style="rhombus;whiteSpace=wrap;html=1;" vertex="1" parent="2">
          <mxGeometry x="373.5" y="430" width="20" height="20" as="geometry" />
        </mxCell>
        <mxCell id="6vOyJ-sNBMJ700w3KjmY-73" style="edgeStyle=orthogonalEdgeStyle;rounded=0;orthogonalLoop=1;jettySize=auto;html=1;exitX=0.25;exitY=1;exitDx=0;exitDy=0;entryX=0.5;entryY=0;entryDx=0;entryDy=0;" edge="1" parent="2" source="6vOyJ-sNBMJ700w3KjmY-19" target="6vOyJ-sNBMJ700w3KjmY-72">
          <mxGeometry relative="1" as="geometry" />
        </mxCell>
        <mxCell id="6vOyJ-sNBMJ700w3KjmY-19" value="AnswerLength Error" style="rounded=1;whiteSpace=wrap;html=1;" vertex="1" parent="2">
          <mxGeometry x="323.5" y="477.5" width="120" height="30" as="geometry" />
        </mxCell>
        <mxCell id="6vOyJ-sNBMJ700w3KjmY-27" value="" style="edgeStyle=orthogonalEdgeStyle;rounded=0;orthogonalLoop=1;jettySize=auto;html=1;exitX=0;exitY=0.5;exitDx=0;exitDy=0;entryX=0;entryY=0;entryDx=65;entryDy=0;entryPerimeter=0;" edge="1" parent="2" source="2FrgjrrF-dDn40EmP_Fg-60" target="2FrgjrrF-dDn40EmP_Fg-63">
          <mxGeometry relative="1" as="geometry">
            <mxPoint x="97.2" y="550" as="sourcePoint" />
            <mxPoint x="48.12000000000002" y="580" as="targetPoint" />
          </mxGeometry>
        </mxCell>
        <mxCell id="6vOyJ-sNBMJ700w3KjmY-28" value="Yes" style="edgeLabel;html=1;align=center;verticalAlign=middle;resizable=0;points=[];" vertex="1" connectable="0" parent="6vOyJ-sNBMJ700w3KjmY-27">
          <mxGeometry x="-0.1529" y="-2" relative="1" as="geometry">
            <mxPoint as="offset" />
          </mxGeometry>
        </mxCell>
        <mxCell id="2FrgjrrF-dDn40EmP_Fg-63" value="SigLoggedIn(user_id)" style="html=1;shape=mxgraph.infographic.ribbonSimple;notch1=0;notch2=20;align=center;verticalAlign=middle;fontSize=14;fontStyle=0;fillColor=#FFFFFF;whiteSpace=wrap;" parent="2" vertex="1">
          <mxGeometry x="70.00000000000001" y="437.49999999999994" width="150" height="30" as="geometry" />
        </mxCell>
        <mxCell id="6vOyJ-sNBMJ700w3KjmY-32" style="edgeStyle=orthogonalEdgeStyle;rounded=0;orthogonalLoop=1;jettySize=auto;html=1;exitX=0.5;exitY=1;exitDx=0;exitDy=0;entryX=-0.13;entryY=0.467;entryDx=0;entryDy=0;entryPerimeter=0;" edge="1" parent="2" source="7" target="2FrgjrrF-dDn40EmP_Fg-42">
          <mxGeometry relative="1" as="geometry" />
        </mxCell>
        <mxCell id="6vOyJ-sNBMJ700w3KjmY-69" style="edgeStyle=orthogonalEdgeStyle;rounded=0;orthogonalLoop=1;jettySize=auto;html=1;exitX=0.5;exitY=1;exitDx=0;exitDy=0;entryX=0.5;entryY=0;entryDx=0;entryDy=0;" edge="1" parent="2" source="6vOyJ-sNBMJ700w3KjmY-64" target="6vOyJ-sNBMJ700w3KjmY-66">
          <mxGeometry relative="1" as="geometry" />
        </mxCell>
        <mxCell id="6vOyJ-sNBMJ700w3KjmY-64" value="sanitise username and challenge question answer" style="rounded=1;whiteSpace=wrap;html=1;" vertex="1" parent="2">
          <mxGeometry x="535" y="293" width="120" height="45" as="geometry" />
        </mxCell>
        <mxCell id="6vOyJ-sNBMJ700w3KjmY-68" style="edgeStyle=orthogonalEdgeStyle;rounded=0;orthogonalLoop=1;jettySize=auto;html=1;exitX=1;exitY=0.5;exitDx=0;exitDy=0;entryX=0;entryY=0.5;entryDx=0;entryDy=0;" edge="1" parent="2" source="6vOyJ-sNBMJ700w3KjmY-66" target="6vOyJ-sNBMJ700w3KjmY-67">
          <mxGeometry relative="1" as="geometry" />
        </mxCell>
        <mxCell id="6vOyJ-sNBMJ700w3KjmY-66" value="check credentials" style="rounded=1;whiteSpace=wrap;html=1;" vertex="1" parent="2">
          <mxGeometry x="537.7500000000001" y="360" width="114.5" height="30" as="geometry" />
        </mxCell>
        <mxCell id="6vOyJ-sNBMJ700w3KjmY-67" value="&lt;div style=&quot;font-size: 10px;&quot;&gt;&lt;font style=&quot;font-size: 10px;&quot;&gt;&amp;lt;&amp;lt;datastore&amp;gt;&amp;gt;&lt;/font&gt;&lt;/div&gt;&lt;div style=&quot;font-size: 10px;&quot;&gt;&lt;font style=&quot;font-size: 10px;&quot;&gt;Users&lt;br&gt;&lt;/font&gt;&lt;/div&gt;" style="rounded=0;whiteSpace=wrap;html=1;" vertex="1" parent="2">
          <mxGeometry x="675" y="362.5" width="100" height="25" as="geometry" />
        </mxCell>
        <mxCell id="6vOyJ-sNBMJ700w3KjmY-71" value="" style="rhombus;whiteSpace=wrap;html=1;" vertex="1" parent="2">
          <mxGeometry x="830" y="427.5" width="80" height="80" as="geometry" />
        </mxCell>
        <mxCell id="6vOyJ-sNBMJ700w3KjmY-72" value="B" style="ellipse;whiteSpace=wrap;html=1;aspect=fixed;" vertex="1" parent="2">
          <mxGeometry x="335" y="547.5" width="30" height="30" as="geometry" />
        </mxCell>
        <mxCell id="6vOyJ-sNBMJ700w3KjmY-70" value="" style="rhombus;whiteSpace=wrap;html=1;" vertex="1" parent="1">
          <mxGeometry x="310" y="510" width="80" height="80" as="geometry" />
        </mxCell>
      </root>
    </mxGraphModel>
  </diagram>
</mxfile>
